{
	"asset":{
		"generator":"Khronos glTF Blender I/O v4.2.57",
		"version":"2.0"
	},
	"scene":0,
	"scenes":[
		{
			"name":"Scene",
			"nodes":[
				0,
				1,
				2
			]
		}
	],
	"nodes":[
		{
			"mesh":0,
			"name":"Truck Chassis"
		},
		{
			"mesh":1,
			"name":"Wheels"
		},
		{
			"mesh":2,
			"name":"Police Chassis"
		}
	],
	"materials":[
		{
			"doubleSided":true,
			"name":"Material",
			"pbrMetallicRoughness":{
				"baseColorTexture":{
					"index":0
				},
				"metallicFactor":0,
				"roughnessFactor":0.5
			}
		}
	],
	"meshes":[
		{
			"name":"TruckChassis",
			"primitives":[
				{
					"attributes":{
						"POSITION":0,
						"NORMAL":1,
						"TEXCOORD_0":2
					},
					"indices":3,
					"material":0
				}
			]
		},
		{
			"name":"Wheels",
			"primitives":[
				{
					"attributes":{
						"POSITION":4,
						"NORMAL":5,
						"TEXCOORD_0":6
					},
					"indices":7,
					"material":0
				}
			]
		},
		{
			"name":"PoliceChassis",
			"primitives":[
				{
					"attributes":{
						"POSITION":8,
						"NORMAL":9,
						"TEXCOORD_0":10
					},
					"indices":11,
					"material":0
				}
			]
		}
	],
	"textures":[
		{
			"sampler":0,
			"source":0
		}
	],
	"images":[
		{
			"mimeType":"image/png",
			"name":"gradient",
			"uri":"textures/gradient.png"
		}
	],
	"accessors":[
		{
			"bufferView":0,
			"componentType":5126,
			"count":272,
			"max":[
				0.3110005259513855,
				0.165586918592453,
				0.3344591557979584
			],
			"min":[
				-0.35300007462501526,
				-0.16641342639923096,
				0.10053733736276627
			],
			"type":"VEC3"
		},
		{
			"bufferView":1,
			"componentType":5126,
			"count":272,
			"type":"VEC3"
		},
		{
			"bufferView":2,
			"componentType":5126,
			"count":272,
			"type":"VEC2"
		},
		{
			"bufferView":3,
			"componentType":5123,
			"count":468,
			"type":"SCALAR"
		},
		{
			"bufferView":4,
			"componentType":5126,
			"count":576,
			"max":[
				0.2502206265926361,
				0.21266670525074005,
				0.1381365954875946
			],
			"min":[
				-0.29387131333351135,
				-0.2123219072818756,
				0.0044363513588905334
			],
			"type":"VEC3"
		},
		{
			"bufferView":5,
			"componentType":5126,
			"count":576,
			"type":"VEC3"
		},
		{
			"bufferView":6,
			"componentType":5126,
			"count":576,
			"type":"VEC2"
		},
		{
			"bufferView":7,
			"componentType":5123,
			"count":1104,
			"type":"SCALAR"
		},
		{
			"bufferView":8,
			"componentType":5126,
			"count":398,
			"max":[
				0.31634771823883057,
				0.16602174937725067,
				0.3363116383552551
			],
			"min":[
				-0.31634771823883057,
				-0.16602174937725067,
				0.08052608370780945
			],
			"type":"VEC3"
		},
		{
			"bufferView":9,
			"componentType":5126,
			"count":398,
			"type":"VEC3"
		},
		{
			"bufferView":10,
			"componentType":5126,
			"count":398,
			"type":"VEC2"
		},
		{
			"bufferView":11,
			"componentType":5123,
			"count":1044,
			"type":"SCALAR"
		}
	],
	"bufferViews":[
		{
			"buffer":0,
			"byteLength":3264,
			"byteOffset":0,
			"target":34962
		},
		{
			"buffer":0,
			"byteLength":3264,
			"byteOffset":3264,
			"target":34962
		},
		{
			"buffer":0,
			"byteLength":2176,
			"byteOffset":6528,
			"target":34962
		},
		{
			"buffer":0,
			"byteLength":936,
			"byteOffset":8704,
			"target":34963
		},
		{
			"buffer":0,
			"byteLength":6912,
			"byteOffset":9640,
			"target":34962
		},
		{
			"buffer":0,
			"byteLength":6912,
			"byteOffset":16552,
			"target":34962
		},
		{
			"buffer":0,
			"byteLength":4608,
			"byteOffset":23464,
			"target":34962
		},
		{
			"buffer":0,
			"byteLength":2208,
			"byteOffset":28072,
			"target":34963
		},
		{
			"buffer":0,
			"byteLength":4776,
			"byteOffset":30280,
			"target":34962
		},
		{
			"buffer":0,
			"byteLength":4776,
			"byteOffset":35056,
			"target":34962
		},
		{
			"buffer":0,
			"byteLength":3184,
			"byteOffset":39832,
			"target":34962
		},
		{
			"buffer":0,
			"byteLength":2088,
			"byteOffset":43016,
			"target":34963
		}
	],
	"samplers":[
		{
			"magFilter":9729,
			"minFilter":9987
		}
	],
	"buffers":[
		{
			"byteLength":45104,
			"uri":"truck.bin"
		}
	]
}
